<svg width="57" height="76" viewBox="0 0 57 76" fill="none" xmlns="http://www.w3.org/2000/svg">
<path d="M50.6665 9.50026H47.4999V6.22842C47.4999 2.76896 44.5725 -0.0345606 41.1665 0.000322026C40.6799 0.00536887 40.2541 0.0727591 39.7518 0.199821L5.99419 9.53455C2.66148 9.71505 0 12.457 0 15.8336V69.6667C0 73.1595 2.84034 76 6.33337 76H50.6666C54.1595 76 57 73.1597 57 69.6667V15.8336C56.9999 12.3407 54.1595 9.50026 50.6665 9.50026ZM40.565 3.25969C42.4128 2.78811 44.3331 4.28479 44.3331 6.22842V9.50026H17.9992L40.565 3.25969ZM53.8332 69.6667C53.8332 71.4123 52.4123 72.8333 50.6666 72.8333H6.33337C4.58775 72.8333 3.16676 71.4123 3.16676 69.6667V15.8336C3.16676 14.088 4.58775 12.667 6.33337 12.667H50.6666C52.4123 12.667 53.8332 14.088 53.8332 15.8336V69.6667Z" fill="#ECD774"/>
</svg>
